<svg version="1.1" xmlns="http://www.w3.org/2000/svg" xmlns:xlink="http://www.w3.org/1999/xlink" x="0" y="0" viewBox="250 250 1000 1000" xml:space="preserve" enable-background="new 0 0 1500 1500"><path d="M306.096,298.337c0.003,4.304-0.007,8.61-0.032,12.917c-0.504,90.219,3.559,175.734,13.147,265.156	c9.628,89.806,9.492,180.741,7.147,270.56c-2.462,94.333-5.442,231.714-8.587,354.695h-6.171	c3.146-123.001,6.127-260.45,8.591-354.818c2.338-89.611,2.483-180.336-7.123-269.934c-9.606-89.6-13.678-175.288-13.173-265.686	c0.024-4.298,0.034-8.596,0.032-12.891H306.096z M334.349,1201.666c0.088-3.723,0.135-7.453,0.135-11.189	c0-35.746-3.214-71.452-1.536-107.199c0.962-20.51,3.153-40.865,4.959-61.315c2.201-24.915,2.071-49.977,4.391-74.852	c0.075-0.803,0.051-5.166,0.915-7.783c0.796-2.415,2.581-3.662,4.304-3.784c1.54-0.115,3.266,0.6,4.515,2.3	c1.358,1.848,2.331,5.146,2.546,6.03c5.188,21.185,9.778,42.828,14.019,64.175c0.1,0.506,0.2,1.005,0.3,1.511	c11.083,55.771,26.665,111.96,43.578,166.585c2.612,8.438,6.031,16.942,9.457,25.522h-6.475c-3.253-8.1-6.467-16.133-8.936-24.112	c-16.963-54.786-32.586-111.131-43.702-167.071c-0.1-0.506-0.2-1.005-0.3-1.511c-4.228-21.272-8.802-42.849-13.973-63.966	L348.546,945c-0.067,1.214-0.068,2.212-0.099,2.549c-2.319,24.867-2.189,49.924-4.389,74.831c-1.8,20.389-3.987,40.677-4.947,61.113	c-1.675,35.679,1.541,71.311,1.541,106.983c0,3.73-0.047,7.453-0.134,11.189H334.349z M353.252,1201.666	c0.107-12.322-0.068-24.665-0.685-37.055c-1.325-26.661-2.554-53.626,0.349-80.24c0.069-0.634,0.395-4.29,1.128-7.163	c0.395-1.545,0.95-2.9,1.554-3.71c0.741-0.998,1.68-1.518,2.564-1.72c0.88-0.196,1.819-0.148,2.801,0.31	c2.03,0.944,3.962,2.624,5.697,4.957c2.229,3.001,4.211,7.163,5.931,11.999c6.353,17.846,9.341,45.189,10.978,53.572	c3.808,19.532,11.425,39.233,17.556,59.049h-6.279c-6.093-19.505-13.607-38.903-17.358-58.139	c-1.615-8.276-4.516-35.267-10.786-52.878c-1.526-4.29-3.236-7.999-5.214-10.663c-0.45-0.607-0.906-1.153-1.377-1.625	c-0.118,0.385-0.225,0.776-0.295,1.12c-0.485,2.374-0.703,4.903-0.757,5.402c-2.876,26.365-1.64,53.087-0.326,79.492	c0.62,12.478,0.795,24.901,0.685,37.291H353.252z M339.883,298.337c-0.503,4.58-0.924,8.843-1.229,12.643	c-6.071,75.714,15.238,212.464,16.824,288.31c2.448,117.156-4.868,131.825,5.868,247.985c5.984,64.751,26.001,151.331,42.94,215.574	c9.138,34.654,24.827,105.769,37.111,138.818h-6.472c-12.242-33.939-27.637-103.422-36.649-137.603	c-17-64.478-37.072-151.369-43.078-216.353c-10.75-116.317-3.435-131.006-5.887-248.321c-1.588-75.971-22.891-212.949-16.81-288.787	c0.297-3.695,0.703-7.828,1.187-12.265H339.883z M524.857,298.337c2.055,21.891,3.164,43.802,2.477,65.741	c-2.284,72.973-24.557,143.984-25.903,217.271c-2.454,133.686,4.105,263.01-18.552,395.938	c-12.262,71.938-20.545,144.078-24.362,216.731c-0.059,1.126-0.001,4.081-0.098,7.648h-6.128c0.095-3.669,0.005-6.765,0.065-7.898	c3.826-72.835,12.13-145.157,24.423-217.284c22.615-132.683,16.035-261.776,18.485-395.222	c1.346-73.307,23.619-144.339,25.904-217.332c0.685-21.886-0.422-43.743-2.477-65.593H524.857z M472.48,1201.666	c6.484-52.662,9.37-106.086,17.567-158.35c4.951-31.565,10.253-63.055,14.742-94.681c2.149-15.135,2.718-30.499,5.533-45.553	c0.033-0.175,0.163-1.288,0.421-2.172c0.214-0.728,0.547-1.349,0.869-1.733c0.588-0.701,1.323-1.052,2.022-1.194	c0.693-0.148,1.429-0.115,2.199,0.202c0.654,0.263,1.542,0.884,2.337,2.064c0.913,1.349,2.031,3.831,3.23,7.122	c6.319,17.347,15.966,58.698,17.653,64.364c23.032,77.455,1.395,153.015-11.037,229.93h-6.18	c12.426-76.47,34.143-151.578,11.247-228.568c-1.677-5.638-11.251-46.74-17.543-64.04c-2.079,13.341-2.732,26.884-4.629,40.245	c-4.492,31.646-9.798,63.156-14.752,94.748c-8.159,52.021-11.067,105.182-17.485,157.615H472.48z M497.974,1201.666	c3.495-27.774,5.018-55.677,8.082-83.532c5.655-51.387,12.277-85.157,12.277-136.895c0-1.491,1.382-2.698,3.084-2.698	c1.702,0,3.084,1.207,3.084,2.698c0,51.933-6.629,85.832-12.305,137.415c-3.045,27.673-4.579,55.407-8.019,83.013H497.974z M597.299,298.337c-1.725,27.382-3.605,54.824-4.284,82.422c-1.713,69.716,4.272,142.247-12.206,210.749	c-6.838,28.43-21.533,54.849-35.132,81.463c-13.362,26.149-25.669,52.486-27.973,81.22c-6.172,76.977,32.06,149.54,44.008,224.479	c11.511,72.194,2.375,149.663-6.761,222.997h-6.203c9.121-73.084,18.327-150.297,6.855-222.255	c-12.006-75.304-50.254-148.246-44.052-225.599c2.355-29.371,14.837-56.317,28.495-83.046	c13.421-26.263,27.979-52.317,34.727-80.371c16.4-68.177,10.37-140.367,12.075-209.753c0.677-27.562,2.564-54.968,4.295-82.306	H597.299z M651.32,298.337c-0.252,77.92-5.162,156.296-15.077,233.522c-4.483,34.919-10.36,72.668-29.898,103.964	c-10.111,16.195-22.496,30.115-33.417,44.736c-10.667,14.279-19.927,29.235-24.054,47.81c-14.296,64.344-4.042,99.698,11.89,136.7	c10.772,25.016,24.086,50.773,34.286,86.486c23,80.51,14.489,168.008,11.762,250.11h-6.171	c2.708-81.657,11.305-168.703-11.575-248.802c-10.13-35.47-23.375-61.045-34.074-85.893	c-16.274-37.795-26.775-73.907-12.173-139.633c4.291-19.312,13.856-34.888,24.946-49.734c10.835-14.505,23.137-28.304,33.167-44.37	c19.159-30.689,24.785-67.736,29.181-101.978c9.888-77.025,14.786-155.195,15.038-232.92H651.32z M678.629,298.337	c3.656,41.095,8.276,82.155,5.45,123.13c-5.025,72.728-37.005,144.952-31.37,218.313c0.703,9.165,8.751,20.684,18.807,33.037	c15.807,19.42,36.715,40.66,45.159,57.755c22.959,46.497,25.346,123.1-6.124,167.694c-12.228,17.32-31.7,28.982-45.142,45.452	c-23.588,28.907-27.552,55.947-26.803,84.908c0.51,19.694,3.179,40.259,3.538,62.853c0.583,36.704-1.49,73.482-2.616,110.187h-6.171	c1.124-36.677,3.201-73.428,2.619-110.112c-0.358-22.574-3.028-43.125-3.537-62.806c-0.778-30.081,3.449-58.145,27.95-88.166	c13.366-16.376,32.76-27.936,44.914-45.155c30.533-43.266,27.983-117.598,5.706-162.713c-8.303-16.818-28.961-37.659-44.518-56.765	c-10.852-13.331-19.178-25.917-19.938-35.807c-5.653-73.589,26.327-146.048,31.367-219.001c2.819-40.874-1.754-81.832-5.389-122.805	H678.629z M703.179,298.337c-0.108,4.213-0.128,8.42-0.04,12.622c0.715,37.209,11.29,73.814,10.569,111.114	c-1.025,52.99-16.477,103.751-25.663,155.821c-9.442,53.547,9.301,86.903,30.425,118.107	c21.697,32.064,45.776,61.949,46.093,108.079c0.31,44.837-20.888,93.592-43.84,132.906c-14.899,25.522-31.895,44.764-35.834,74.238	c-8.471,63.366-3.669,126.967,0.303,190.441h-6.07c-3.986-63.676-8.857-127.493-0.364-191.068	c4.033-30.169,21.219-49.944,36.468-76.072c22.534-38.586,43.469-86.403,43.165-130.412c-0.303-45.007-24.058-74.077-45.229-105.36	c-21.758-32.142-40.938-66.525-31.207-121.682c9.139-51.828,24.564-102.346,25.582-155.089	c0.722-37.239-9.847-73.784-10.569-110.932c-0.081-4.233-0.061-8.472,0.04-12.714H703.179z M733.53,298.337	c0.041,21.93,0.573,43.84,1.808,65.695c1.76,31.298,13.429,62.121,11.088,93.552c-1.909,25.629-12.612,51.053-22.169,76.542	c-9.348,24.911-17.597,49.886-14.804,75.232c3.777,34.286,26.358,63.06,47.671,92.116c21.913,29.875,42.491,60.04,41.634,96.258	c-1.073,45.562-22.035,86.147-43.907,126.628c-21.535,39.84-43.961,79.586-48.312,124.107c-4.89,49.998-3.231,101.891-1.214,153.197	h-6.165c-2.017-51.455-3.669-103.503,1.228-153.656c4.418-45.175,27.032-85.535,48.885-125.962	c21.502-39.786,42.268-79.639,43.321-124.426c0.83-35.115-19.418-64.265-40.663-93.231c-21.839-29.783-44.744-59.372-48.615-94.515	c-2.873-26.08,5.463-51.801,15.074-77.433c9.395-25.053,20.005-50.021,21.886-75.21c2.327-31.227-9.348-61.841-11.102-92.935	c-1.234-21.942-1.767-43.94-1.814-65.961H733.53z M772.21,298.337c5.49,42.161,8.633,83.89,7.581,127.52	c-0.674,28.192-11.769,57.805-21.009,87.032c-9.024,28.557-16.309,56.735-9.537,82.806c10.474,40.349,34.91,76.223,57.066,112.797	c22.5,37.147,42.66,75.007,44.218,118.757c1.531,42.792-13.321,83.57-30.304,124.132c-16.774,40.056-35.618,79.89-42.302,121.315	c-6.853,42.491-19.593,85.724-26.304,128.97h-6.171c6.711-43.496,19.472-86.985,26.365-129.726	c6.745-41.796,25.697-82.008,42.619-122.415c16.713-39.908,31.437-80.011,29.933-122.109	c-1.531-42.896-21.441-79.975-43.503-116.397c-22.412-36.994-47.037-73.316-57.633-114.129c-6.981-26.895,0.297-55.984,9.611-85.442	c9.098-28.788,20.119-57.938,20.787-85.706c1.052-43.596-2.111-85.286-7.621-127.406H772.21z M883.826,298.337	c-1.261,44.47-1.808,89.016-4.816,133.725c-4.027,59.928-20.989,118.045-19.505,178.503c1.12,45.72,11.924,89.408,18.878,133.159	c7.021,44.208,10.124,88.478-4.256,134.929c-32.941,106.403-78.622,212.893-92.543,323.013h-6.198	c13.887-110.618,59.703-217.574,92.786-324.422c14.15-45.709,11.014-89.274,4.101-132.775	c-6.987-43.957-17.813-87.853-18.939-133.788c-1.484-60.603,15.479-118.864,19.519-178.936c3.001-44.597,3.561-89.031,4.822-133.408	H883.826z M818.343,1201.666l0.513-3.197c0.978-6.03,2.671-53.512,9.483-67.102c0.931-1.861,2.01-3.197,3.096-3.993	c1.187-0.87,2.469-1.241,3.777-1.207c1.551,0.047,3.366,0.722,5.146,2.61c1.673,1.781,3.575,4.93,5.605,9.813	c8.532,20.544,14.906,41.668,19.748,63.076h-6.286c-4.755-20.787-10.98-41.284-19.263-61.228c-1.288-3.102-2.475-5.402-3.588-7.008	c-0.452-0.634-1.045-1.234-1.43-1.578c-0.391,0.506-1.093,1.49-1.497,2.394c-0.324,0.742-0.641,1.572-0.944,2.475	c-0.391,1.18-0.762,2.489-1.113,3.898c-4.566,18.379-5.794,53.512-6.623,58.611l-0.398,2.435H818.343z M900.256,298.337	c-0.088,4.245-0.162,8.491-0.256,12.737c-1.983,87.569,1.261,172.727-10.495,260.156c-6.144,45.718-7.514,90.826,1.639,136.354	c7.534,37.49,21.191,71.823,21.191,110.613c0,40.424-11.628,79.787-23.491,119.303c-11.742,39.092-23.721,78.332-24.557,118.955	c-1.052,50.692,11.702,97.615,24.591,145.211h-6.306c-12.855-47.63-25.501-94.6-24.456-145.306	c0.85-41.061,12.896-80.726,24.759-120.229c11.736-39.071,23.289-77.972,23.289-117.934c0-38.466-13.624-72.5-21.097-109.678	c-9.26-46.05-7.905-91.677-1.686-137.92c11.729-87.253,8.471-172.239,10.447-259.631c0.094-4.211,0.175-8.422,0.256-12.631H900.256z M930.58,298.337v0.148c2.361,91.791,13.017,182.143,6.529,274.41c-3.035,43.169-14.75,87.604-11.978,130.877	c3.487,54.227,21.084,103.349,15.546,158.89c-3.46,34.741-15.391,69.625-25.832,104.528	c-10.306,34.472-19.161,68.957-16.612,103.375c3.332,45,17.556,88.105,32.428,131.102h-6.448	c-14.804-42.875-28.813-85.886-32.138-130.751c-2.59-34.984,6.326-70.056,16.807-105.094c10.346-34.607,22.217-69.179,25.65-103.631	c5.51-55.271-12.093-104.15-15.56-158.115c-2.792-43.481,8.93-88.134,11.978-131.512c6.475-92.114-4.182-182.317-6.536-273.957	l-0.007-0.269H930.58z M1152.909,298.337c-9.301,43.793-18.696,87.533-25.232,131.641c-13.456,90.851-21.697,184.634-51.225,272.932	c-15.971,47.759-36.131,90.699-66.879,132.715c-13.402,18.32-34.586,34.942-43.698,55.412	c-8.478,19.026-10.076,41.425-14.359,61.336c-21.387,99.388-15.519,156.832,9.679,249.294h-6.34	c-25.151-92.597-30.884-150.465-9.402-250.292c4.35-20.227,6.063-42.97,14.669-62.3c9.267-20.787,30.641-37.752,44.258-56.361	c30.425-41.572,50.349-84.065,66.151-131.32c29.44-88.03,37.615-181.534,51.03-272.109c6.502-43.873,15.83-87.382,25.083-130.947	H1152.909z M979.155,1201.666c-3.979-10.144-7.696-19.87-10.879-28.975c-1.963-5.605-13.698-39.598-14.919-54.517	c-0.256-3.123-0.007-5.537,0.641-6.954c0.56-1.227,1.416-1.996,2.381-2.435c1.248-0.567,2.644-0.56,4.026,0.007	c1.47,0.607,3.001,2.138,3.635,2.839c10.211,11.304,15.749,27.059,22.197,40.13c10.555,21.38,19.02,36.299,25.866,49.903h-6.718	c-6.637-13.024-14.777-27.43-24.807-47.759c-6.205-12.565-11.412-27.754-21.158-38.68c-0.074,2.172,0.31,5.166,0.958,8.646	c3.042,16.275,12.113,42.424,13.793,47.239c3.352,9.584,7.284,19.843,11.479,30.553H979.155z M1172.286,298.337	c-3.426,33.89-3.622,65.11-10.076,110.303c-18.008,126.079-40.36,254.374-70.171,378.604c-8.93,37.24-31.565,69.251-53.815,101.183	c-21.859,31.376-43.348,62.671-50.396,99.044c-7.547,38.97-9.678,96.859,11.999,133.226c21.724,36.441,40.38,49.148,47.941,80.969	h-6.326c-7.621-30.594-25.967-43.058-47.077-78.474c-22.237-37.298-20.355-96.657-12.612-136.625	c7.176-37.055,28.941-68.991,51.205-100.953c21.886-31.407,44.258-62.848,53.046-99.479	c29.777-124.086,52.102-252.233,70.09-378.165c6.407-44.885,6.677-76.028,10.036-109.633H1172.286z M1183.401,298.337	c-2.495,88.486-1.099,176.057-0.02,264.632c0.121,9.979,0.31,19.959,0.553,29.944c0.047,2.086,0.303,11.841,0.357,13.658	c1.423,49.823,4.006,99.66,6.131,149.471c0.061,1.337,0.472,11.176,0.533,12.647c1.592,38.97,2.833,77.924,2.927,116.837	c0.155,60.101-9.827,119.778-8.269,179.885c1.187,45.411,5.281,90.843,9.038,136.255h-6.158	c-3.763-45.384-7.864-90.762-9.045-136.133c-1.565-60.142,8.424-119.858,8.269-179.993c-0.094-36.406-1.18-72.846-2.63-109.292	c-2.759,8.313-4.998,17.879-6.664,21.837c-9.314,22.124-22.615,44.406-25.731,68.05c-4.222,31.99,8.242,65.632,10.124,97.682	c3.453,58.806-9.166,120.809-21.165,178.28c-4.188,20.092-6.724,39.82-7.959,59.568h-6.178c1.241-20.072,3.811-40.124,8.073-60.54	c11.911-57.066,24.503-118.638,21.07-177.032c-1.902-32.34-14.352-66.293-10.097-98.579c3.17-24.065,16.592-46.778,26.068-69.296	c1.976-4.695,4.755-17.363,8.269-26.316c1.12-2.846,2.354-5.338,3.635-7.209c-1.983-47.359-4.438-94.742-5.982-142.119	c-7.621,34.323-6.428,73.131-16.369,107.641c-12.167,42.285-32.644,82.73-37.716,126.467c-2.705,23.304,1.916,45.581,7.082,67.839	c5.268,22.709,11.108,45.391,10.731,69.051c-0.991,62.361-25.704,119.13-37.493,179.865c-1.909,9.854-3.474,19.971-4.634,30.229	h-6.198c1.18-10.569,2.786-20.989,4.755-31.133c11.729-60.459,36.414-116.958,37.406-179.036	c0.371-23.269-5.429-45.567-10.616-67.905c-5.288-22.783-9.942-45.6-7.169-69.457c5.106-43.999,25.629-84.702,37.878-127.24	c11.81-41.021,7.992-88.092,21.745-126.552c-0.331-12.44-0.587-24.88-0.735-37.318c-0.31-25.232-0.641-50.383-0.904-75.511	c-18.548,86.862-32.327,179.023-51.347,264.766c-9.584,43.178-35.922,85.835-41.297,129.109c-1.545,12.43,3.386,26.216,9.416,39.928	c6.266,14.251,13.766,28.415,17.158,40.919c15.088,55.602-4.344,103.799-22.507,156.461c-9.577,27.761-13.408,55.272-14.353,82.965	h-6.144c0.951-28.219,4.836-56.243,14.589-84.523c17.846-51.731,37.237-99.038,22.412-153.656	c-3.339-12.295-10.751-26.21-16.916-40.232c-6.401-14.562-11.432-29.245-9.786-42.444c5.389-43.422,31.76-86.237,41.371-129.558	c20.901-94.213,35.47-196.172,56.985-290.32c0.04-0.169,0.094-0.33,0.169-0.484c-0.425-53.982-0.357-107.873,1.174-162.112H1183.401	z M1054.337,1139.278c8.62-4.276,16.315-14.528,22.399-28.489c13.584-31.194,19.775-81.097,14.724-119.245	c-1.538-11.614-4.425-29.858-12.99-42.376c-6.144-8.991-15.128-15.121-28.226-14.649c-25.07,0.904-40.643,20.409-49.276,46.255	c-12.457,37.291-10.845,87.538-6.313,108.629c3.473,16.173,11.027,33.325,24.125,45.283c0.425,0.391,5.227,3.635,11.992,5.686	C1037.556,1142.435,1046.25,1143.291,1054.337,1139.278z M1051.295,1134.584c-6.347,3.15-13.179,2.307-18.5,0.688	c-4.971-1.504-9.631-4.384-9.631-4.384s0.054,0.054,0.067,0.061c-12.289-11.223-19.256-27.37-22.514-42.545	c-4.431-20.605-6.003-69.685,6.171-106.113c7.783-23.309,21.003-41.56,43.611-42.376c10.582-0.384,17.711,4.762,22.682,12.026	c8.114,11.87,10.69,29.211,12.147,40.225c4.951,37.331-1.059,86.176-14.359,116.702	C1065.526,1121.365,1059.004,1130.76,1051.295,1134.584z M1048.833,1120.886c6.718-5.274,12.41-15.863,16.74-28.934	c9.766-29.508,13.044-71.736,9.274-90.169c-1.248-6.09-3.055-19.141-7.932-28.658c-3.723-7.277-9.328-12.451-17.111-12.552	c-21.205-0.27-33.986,15.634-40.636,36.954c-9.496,30.438-6.826,71.641-2.381,86.553c0.796,2.664,9.982,27.046,21.974,36.272	c3.682,2.833,7.655,4.323,11.682,4C1043.188,1124.137,1046.014,1123.098,1048.833,1120.886z M1044.712,1116.866	c-5.895,4.62-11.392,0.83-16.207-4.762c-8.822-10.232-15.115-27.262-15.749-29.386c-4.303-14.433-6.832-54.308,2.361-83.768	c5.807-18.608,16.086-33.21,34.6-32.981c5.49,0.074,8.943,4.229,11.574,9.362c4.654,9.098,6.293,21.583,7.487,27.403	c3.669,17.934,0.371,59.009-9.132,87.714C1055.713,1102.325,1050.816,1112.077,1044.712,1116.866z M486.016,298.337	c1.341,17.834,2.476,35.651,2.476,53.424c0,55.476-10.492,110.766-18.639,165.618c-4.953,33.342-11.641,67.42-10.234,101.169	c1.999,47.927,13.857,95.22,16.358,143.382c3.984,76.713-7.808,159.727-25.973,234.673c-8.032,33.143-2.441,67.534-10.255,100.447	c-0.162,0.681-0.824,4.593-1.92,7.689c-0.585,1.646-1.333,3.089-2.12,3.959c-1.578,1.76-3.483,2.125-5.385,1.362	c-0.708-0.277-1.424-0.762-2.063-1.497c-0.819-0.944-1.599-2.482-2.227-4.364c-1.7-5.099-2.6-13.091-2.962-15.047	c-9.511-51.454-21.798-101.958-32.092-153.278c-7.899-39.375-4.464-78.187-6.058-117.811c-2.865-71.227-6.822-142.095-7.341-213.446	c-0.607-83.39-10.452-165.889-14.191-248.996c-0.822-18.281-0.359-37.669,1.297-57.284h6.181	c-1.665,19.547-2.133,38.864-1.315,57.071c3.741,83.166,13.588,165.724,14.195,249.174c0.519,71.299,4.474,142.116,7.337,213.291	c1.584,39.374-1.88,77.945,5.968,117.071c10.3,51.34,22.591,101.871,32.106,153.345c0.346,1.875,1.168,9.517,2.794,14.393	l0.054,0.155c0.123-0.317,0.233-0.62,0.317-0.904c0.785-2.63,1.25-5.429,1.382-5.982c7.816-32.921,2.226-67.318,10.261-100.468	c18.06-74.508,29.806-157.041,25.845-233.308c-2.502-48.178-14.361-95.487-16.36-143.431c-1.42-34.045,5.285-68.427,10.281-102.062	c8.114-54.623,18.588-109.678,18.588-164.922c0-17.777-1.122-35.597-2.45-53.424H486.016z M1024.519,1090.879	c1.41,2.92,4.863,6.165,8.545,7.716c3.001,1.268,6.131,1.423,8.707,0.148c5.065-2.509,12.835-10.71,16.612-22.068	c8.262-24.861,7.662-64.371-1.902-80.794c-2.941-5.052-6.826-8.067-11.223-8.701c-3.042-0.432-6.461,0.209-10.191,2.408	c-11.466,6.758-16.174,20.564-18.723,31.693c-2.091,9.166-2.408,18.379-2.138,27.7	C1014.638,1064.015,1020.6,1082.772,1024.519,1090.879z M1030.198,1088.775c-3.736-7.723-9.409-25.603-9.82-39.928	c-0.256-8.916,0.013-17.738,2.017-26.506c2.253-9.854,5.969-22.291,16.12-28.28c2.125-1.248,4.013-1.801,5.746-1.551	c2.779,0.398,4.87,2.637,6.724,5.827c9.092,15.614,9.328,53.188,1.477,76.834c-3.197,9.611-9.442,16.747-13.725,18.878	c-0.897,0.438-1.956,0.121-2.995-0.317C1033.361,1092.727,1031.108,1090.656,1030.198,1088.775z M1037.246,1073.741	c5.045-2.415,8.761-7.129,11.156-13.064c3.291-8.195,4.135-18.75,3.237-27.862c-0.722-7.291-2.597-13.658-5.065-17.293	c-1.437-2.111-3.163-3.426-4.903-3.973c-4.674-1.464-8.883,0.911-11.607,6.61c-4.593,9.618-5.618,29.568-3.696,42.403	c0.621,4.134,1.558,7.554,2.718,9.753c1.308,2.489,3.17,3.703,4.87,3.952C1035,1074.415,1036.106,1074.287,1037.246,1073.741z M1035.088,1068.581c3.42-1.956,5.8-5.483,7.493-9.699c3.028-7.527,3.736-17.232,2.907-25.602c-0.54-5.47-1.727-10.367-3.426-13.658	c-0.479-0.924-0.985-1.7-1.545-2.286c-0.303-0.324-0.587-0.594-0.924-0.701c-0.917-0.29-1.578,0.263-2.232,1.018	c-0.89,1.039-1.639,2.496-2.307,4.222c-2.853,7.439-3.831,19.58-3.332,29.906c0.27,5.672,0.985,10.798,2.145,14.272	C1034.177,1066.996,1034.737,1068.001,1035.088,1068.581z M417.14,933.001c-0.289-0.573-1.744-3.46-1.846-3.71	c-7.078-17.145-8.327-35.773-8.485-53.869c-0.169-19.164,1.615-38.248,3.136-57.345c1.079-13.548,2.023-27.103,2.023-40.697	c0-27.518-5.34-54.813-5.125-82.323c0.181-23.257,1.941-49.35,6.931-62.479c1.476-3.885,3.31-6.732,5.323-8.334	c1.888-1.503,3.985-2.116,6.244-1.869c1.073,0.117,2.446,0.778,3.278,2.402c1.093,2.132,1.662,7.277,1.772,8.031	c3.136,21.408,9.021,42.24,13.458,63.436c11.597,55.399,12.042,117.763,3.324,173.56c-3.237,20.713-5.987,41.547-9.85,62.178	c-0.33,1.76-0.718,12.653-1.87,17.334c-0.297,1.214-0.696,2.118-1.07,2.644c-0.513,0.728-1.143,1.126-1.706,1.342	c-0.951,0.371-3.039,0.459-4.683-1.47c-1.62-1.902-4.194-7.136-4.721-8.228l-5.775-9.463	C417.281,933.784,417.162,933.393,417.14,933.001z M423.239,628.227c-0.179,0.15-0.355,0.326-0.535,0.515	c-1.18,1.246-2.169,3.15-3.078,5.541c-4.855,12.776-6.438,38.179-6.616,60.812c-0.215,27.497,5.125,54.781,5.125,82.286	c0,13.72-0.95,27.4-2.038,41.072c-1.509,18.959-3.288,37.904-3.121,56.923c0.154,17.495,1.277,35.51,8.119,52.082	c0.138,0.337,1.829,3.473,2.154,4.647l5.531,9.065c0.047,0.074,0.088,0.155,0.126,0.236c0.122,0.25,0.587,1.241,1.195,2.435	c0.063-0.438,0.118-0.877,0.16-1.295c0.494-4.836,0.751-10.238,0.975-11.439c3.855-20.578,6.596-41.365,9.826-62.03	c8.632-55.252,8.203-117.003-3.28-171.858c-4.458-21.292-10.359-42.219-13.509-63.723	C424.21,633.065,423.596,629.993,423.239,628.227z M417.494,931.605l-0.072,0.128l0.091-0.162L417.494,931.605z M417.579,931.47	l-0.055,0.088l0.095-0.142L417.579,931.47z M417.64,931.389l0.119-0.148C417.718,931.288,417.678,931.335,417.64,931.389z M628.24,922.406c8.755,2.624,17.869-1.592,26.061-11.425c10.951-13.145,20.733-36.488,27.181-63.298	c9.611-39.997,11.837-87.692,0.02-120.306c-8.221-22.686-23.243-38.151-46.663-39.807c-40.88-2.891-60.772,23.976-67.34,60.688	c-9.54,53.33,9.124,127.333,28.054,154.629C604.909,916.376,615.762,918.662,628.24,922.406z M630.239,917.293	c-11.157-3.339-21.046-5.146-29.412-17.205c-18.482-26.655-36.548-98.927-27.233-150.995c6.003-33.555,23.384-58.785,60.749-56.142	c20.961,1.482,33.922,15.753,41.278,36.057c11.547,31.87,9.22,78.478-0.175,117.562c-6.23,25.911-15.544,48.526-26.129,61.226	c-3.278,3.932-6.639,6.886-10.097,8.552C636.253,917.779,633.245,918.197,630.239,917.293z M606.062,877.763	c3.712,5.295,8.479,10.454,14.653,13.523c8.481,4.209,16.292,2.786,23.16-2.745c9.026-7.277,16.383-22.433,20.982-40.654	c6.753-26.752,7.768-60.106,0.658-83.692c-5.031-16.688-14.326-28.488-27.838-30.814c-11.661-2.008-20.924-0.156-28.196,4.357	c-10.544,6.544-16.924,18.971-19.961,34.098C582.202,808.288,593.929,860.456,606.062,877.763z M611.32,874.944	c-11.699-16.693-22.781-67.025-15.724-102.173c4.449-22.158,16.124-38.356,40.89-34.092c11.568,1.992,18.757,12.609,23.064,26.894	c6.895,22.87,5.831,55.21-0.716,81.15c-4.267,16.904-10.764,31.095-19.137,37.846c-4.732,3.811-10.094,4.923-15.938,2.023	C618.477,883.968,614.495,879.469,611.32,874.944z M605.847,837.121c0.925,3.031,1.435,6.163,2.553,9.144	c2.6,6.929,5.259,11.584,7.816,14.408c2.144,2.367,4.344,3.601,6.412,4.046c2.392,0.519,4.749,0.088,7.006-1.268	c2.518-1.522,4.996-4.408,7.186-8.349c5.836-10.508,10.162-28.961,11.424-44.991c0.859-10.911,0.253-20.711-2.066-26.27	c-3.072-7.365-6.316-12.082-9.446-14.736c-2.616-2.217-5.27-3.161-7.809-3.219c-3.976-0.092-8,2.114-11.467,6.361	C606.834,785.257,600.171,818.519,605.847,837.121z M611.807,835.727c-5.279-17.297,0.79-48.244,10.667-60.341	c2.002-2.453,3.989-4.156,6.285-4.103c1.638,0.038,3.198,1.047,4.89,2.864c2.271,2.439,4.51,6.214,6.734,11.546	c2.121,5.085,2.491,14.064,1.706,24.047c-1.205,15.314-5.242,32.962-10.818,43.001c-1.383,2.489-2.826,4.48-4.387,5.733	c-0.911,0.73-1.793,1.217-2.777,1.004c-1.027-0.222-1.991-0.982-3.056-2.158c-2.254-2.49-4.499-6.633-6.79-12.74	C613.178,841.695,612.702,838.661,611.807,835.727z M1130.18,298.337c-10.13,64.268-25.859,127.595-37.655,193.156	c-11.709,65.051-12.349,129.813-33.204,193.531c-4.802,14.667-30.668,83.672-55.994,123.757	c-6.664,10.551-13.327,19.122-19.546,24.308c-4.741,3.956-9.382,5.998-13.57,5.998c-3.352,0-5.342-1.636-6.299-4.222	c-1.369-3.678,0.128-10.129,0.567-12.216c8.539-40.246,27.821-76.984,26.749-118.846c-1.106-42.991-12.383-84.897-16.167-127.644	c-4.451-50.396,0.02-101.082,1.76-151.489c1.464-42.57-2.111-84.378-7.689-126.332h6.212c5.558,42.008,9.105,83.872,7.642,126.494	c-1.733,50.214-6.212,100.707-1.774,150.91c3.79,42.845,15.074,84.849,16.18,127.939c1.086,42.243-18.231,79.34-26.844,119.953	c-0.31,1.458-1.423,5.519-1.012,8.539c0.061,0.423,0.142,0.818,0.297,1.161c0.074,0.171,0.142,0.354,0.378,0.354	c2.934,0,5.996-1.737,9.314-4.507c5.875-4.901,12.107-13.042,18.406-23.013c25.09-39.718,50.699-108.099,55.461-122.632	c20.78-63.502,21.374-128.052,33.035-192.884c11.749-65.278,27.437-128.332,37.554-192.316H1130.18z M864.577,298.337	c-0.041,18.734-0.782,37.342-2.529,55.646c-6.583,69.151-23.525,137.208-29.184,206.569c-3.419,41.936-0.229,85.25,8.518,126.604	c4.148,19.608,13.267,40.637,10.029,60.861c-0.121,0.74-0.695,3.815-1.733,5.556c-1.072,1.804-2.765,2.553-4.323,2.456	c-1.349-0.084-2.839-0.866-3.905-2.433c-1.12-1.654-1.922-4.449-2.246-5.294c-9.186-24.123-17.448-49.085-28.449-72.624	c-15.513-33.183-36.643-66.65-38.647-103.367c-1.929-35.482,7.176-70.066,15.567-104.878c8.269-34.299,15.843-68.823,10.973-104.696	c-2.92-21.496-5.234-42.933-7.163-64.402h6.185c1.915,21.26,4.215,42.483,7.102,63.765c4.951,36.47-2.651,71.576-11.061,106.447	c-8.282,34.359-17.347,68.485-15.438,103.506c1.963,36.102,22.938,68.952,38.188,101.579c11.054,23.649,19.364,48.725,28.597,72.96	c0.047,0.128,0.135,0.349,0.25,0.629c3.123-19.646-5.962-40.039-9.989-59.083c-8.849-41.802-12.066-85.584-8.606-127.973	c5.659-69.382,22.601-137.46,29.191-206.632c1.727-18.154,2.462-36.607,2.509-55.198H864.577z M1107.767,298.337	c-4.047,33.372-10.461,66.624-18.75,99.994c-22.264,89.63-30.695,180.142-47.347,270.591c-0.209,1.139-0.405,2.279-0.62,3.417	c-4.512,23.693-6.482,53.328-23.869,72.892c-0.769,0.871-2.098,2.395-3.554,3.207c-1.801,1-3.77,1.212-5.726,0.156	c-1.376-0.739-2.01-2.137-2.334-3.392c-3.305-13.022,0.135-28.279,2.826-43.594c2.597-14.839,1.039-30.552,1.288-43.504	c0.654-34.304-12.059-67.005-14.305-101.145c-3.662-55.838,2.758-113.146,3.73-169.043c0.526-30.281-3.696-59.957-8.336-89.581	h6.165c4.64,29.643,8.862,59.35,8.343,89.663c-0.971,55.767-7.399,112.942-3.743,168.651c2.253,34.273,14.966,67.105,14.312,101.544	c-0.25,13.172,1.288,29.142-1.362,44.233c-2.489,14.216-5.949,28.379-3.136,40.576c0.385-0.4,0.708-0.799,0.965-1.087	c16.787-18.884,18.298-47.595,22.655-70.465c0.216-1.128,0.411-2.259,0.614-3.388c16.666-90.546,25.124-181.153,47.408-270.879	c8.195-32.991,14.548-65.865,18.575-98.848H1107.767z M522.687,636.626c0.104-0.62,0.53-3.276,1.087-7.868	c0.573-4.731,0.987-9.486,1.378-14.231c1.19-14.489,2.301-29.023,2.91-43.54c0.961-22.875,1.085-45.606,5.553-68.242	c4.354-22.059,11.991-43.533,15.982-65.655c0.824-4.565,4.089-28.058,6.991-37.47c0.767-2.488,1.698-4.165,2.399-4.815	c0.724-0.672,1.512-0.946,2.21-1.03c1.517-0.183,3.076,0.381,4.22,1.83c1.037,1.314,1.754,3.722,1.984,4.445	c5.801,18.241,2.889,39.894,2.185,58.528c-2.336,61.781-2.38,122.87-37.563,178.295c-0.263,0.414-0.645,0.76-1.109,1.004	l-3.272,1.719c-0.552,0.428-1.141,0.531-1.449,0.584c-1.093,0.185-2.54,0.08-3.391-1.517	C522.448,638,522.428,637.271,522.687,636.626z M561.95,403.129c-2.692,10.266-5.505,30.616-6.26,34.802	c-3.995,22.148-11.638,43.648-15.996,65.733c-4.42,22.397-4.516,44.888-5.467,67.521c-0.612,14.58-1.726,29.177-2.922,43.729	c-0.38,4.626-0.784,9.26-1.333,13.875c31.341-53.194,31.223-111.491,33.45-170.389C564.084,440.836,566.918,420.511,561.95,403.129z M423.324,298.337c-0.886,7.211-1.704,14.427-2.438,21.649c-6.641,65.434-6.455,134.651-4.516,200.431	c0.697,23.636,5.431,46.977,4.43,70.642c-0.063,1.489-1.495,2.653-3.196,2.597c-1.701-0.055-3.031-1.308-2.968-2.797	c0.997-23.552-3.738-46.78-4.432-70.303c-1.945-65.982-2.123-135.411,4.538-201.047c0.716-7.062,1.515-14.118,2.378-21.172H423.324z M1090.076,298.337c-0.904,10.272-2.084,20.508-3.656,30.692c-6.354,41.118-22.136,81.877-31.922,122.498	c-2.367,9.828-12.046,59.895-19.768,79.83c-1.504,3.892-3.022,6.722-4.344,8.134c-1.187,1.273-2.482,1.776-3.568,1.859	c-1.551,0.118-2.826-0.397-3.824-1.361c-1.113-1.083-1.74-3.093-1.996-4.1c-7.271-28.646,1.976-63.601,4.809-92.363	c4.89-49.52-1.808-96.769-5.085-145.188h6.171c3.285,48.57,9.962,95.972,5.065,145.653c-2.765,27.993-11.911,61.948-5.133,89.94	c0.668-1.201,1.457-2.744,2.064-4.306c7.662-19.779,17.226-69.459,19.573-79.211c9.76-40.494,25.515-81.119,31.841-122.108	c1.538-9.942,2.698-19.934,3.595-29.969H1090.076z M573.087,298.337c-0.43,4.761-0.9,9.519-1.385,14.274	c-1.126,11.019-1.912,22.561-5.771,33.161c-1.491,4.093-3.059,6.38-4.37,7.422c-1.41,1.12-2.835,1.373-4.144,1.187	c-1.129-0.159-2.303-0.712-3.339-1.804c-1.495-1.575-2.924-4.796-4.025-8.657c-2.301-8.068-3.587-19.053-3.658-20.551	c-0.393-8.328-0.909-16.679-1.549-25.03h6.182c0.631,8.278,1.141,16.553,1.531,24.807c0.068,1.447,1.348,12.248,3.611,19.924	c0.501,1.701,1.418,3.633,2.046,4.864c0.558-0.939,1.294-2.311,1.836-3.8c3.724-10.227,4.419-21.371,5.505-32.002	c0.469-4.595,0.924-9.193,1.342-13.793H573.087z" fill-rule="evenodd" clip-rule="evenodd"/></svg>